HIERARCHY
ROOT Hips
{
     OFFSET 9.45640 97.64010 -15.73930
     CHANNELS 6 Xposition Yposition Zposition Zrotation Xrotation Yrotation
     JOINT Spine
     {
          OFFSET 0.00000 11.89050 -0.00000
          CHANNELS 3 Zrotation Xrotation Yrotation
          JOINT Spine1
          {
               OFFSET -0.00000 25.65740 0.12766
               CHANNELS 3 Zrotation Xrotation Yrotation
               JOINT HEad
               {
                    OFFSET -0.00000 8.73416 0.01134
                    CHANNELS 3 Zrotation Xrotation Yrotation
                    End Site
                    {
                         OFFSET -0.29000 12.77420 2.51395
                    }
               }
               JOINT LeftShoulder1
               {
                    OFFSET 8.99000 -0.36225 -0.22000
                    CHANNELS 3 Zrotation Xrotation Yrotation
                    JOINT LeftArm
                    {
                         OFFSET 10.28270 -0.00338 0.32212
                         CHANNELS 3 Zrotation Xrotation Yrotation
                         JOINT LeftForeArm
                         {
                              OFFSET 32.76690 0.09914 -1.42434
                              CHANNELS 3 Zrotation Xrotation Yrotation
                              JOINT LeftHand
                              {
                                   OFFSET 27.56430 0.08536 1.02216
                                   CHANNELS 3 Zrotation Xrotation Yrotation
                                   End Site
                                   {
                                        OFFSET 16.74430 -0.60000 1.50291
                                   }
                              }
                         }
                    }
               }
               JOINT RightShoulder
               {
                    OFFSET -8.99000 -0.36225 -0.22000
                    CHANNELS 3 Zrotation Xrotation Yrotation
                    JOINT RightArm
                    {
                         OFFSET -10.28270 -0.00338 0.32212
                         CHANNELS 3 Zrotation Xrotation Yrotation
                         JOINT RightForeArm
                         {
                              OFFSET -32.89710 0.09914 -1.42434
                              CHANNELS 3 Zrotation Xrotation Yrotation
                              JOINT RightHand
                              {
                                   OFFSET -27.49210 0.08536 1.02216
                                   CHANNELS 3 Zrotation Xrotation Yrotation
                                   End Site
                                   {
                                        OFFSET -16.63120 -0.60000 1.50291
                                   }
                              }
                         }
                    }
               }
          }
     }
     JOINT LeftUpLeg
     {
          OFFSET 8.94580 -8.66707 0.10165
          CHANNELS 3 Zrotation Xrotation Yrotation
          JOINT LeftLeg
          {
               OFFSET -0.00000 -44.42270 1.37270
               CHANNELS 3 Zrotation Xrotation Yrotation
               JOINT LeftFoot
               {
                    OFFSET -0.25355 -42.09240 -1.46059
                    CHANNELS 3 Zrotation Xrotation Yrotation
                    JOINT LeftToes
                    {
                         OFFSET -0.04000 -4.41509 8.49910
                         CHANNELS 3 Zrotation Xrotation Yrotation
                         End Site
                         {
                              OFFSET 0.08000 -0.04745 9.77979
                         }
                    }
               }
          }
     }
     JOINT RightUpLeg
     {
          OFFSET -8.94580 -8.66707 0.10165
          CHANNELS 3 Zrotation Xrotation Yrotation
          JOINT RightLeg
          {
               OFFSET 0.00000 -44.42270 1.37270
               CHANNELS 3 Zrotation Xrotation Yrotation
               JOINT RightFoot
               {
                    OFFSET 0.25355 -42.09240 -1.46059
                    CHANNELS 3 Zrotation Xrotation Yrotation
                    JOINT RightToes
                    {
                         OFFSET 0.04000 -4.41509 8.49910
                         CHANNELS 3 Zrotation Xrotation Yrotation
                         End Site
                         {
                              OFFSET -0.08000 -0.13745 9.77979
                         }
                    }
               }
          }
     }
}
MOTION
Frames: 8
Frame Time: 0.01667
-56.24330 84.21760 22.24070 5.40622 4.80491 70.16780 3.27790 7.35060 8.85489 2.42717 15.66450 16.85380 -19.48350 -4.95922 36.06090 -0.00000 -0.00000 0.00000 -41.71790 -43.39340 -9.95076 -9.06979 10.74230 -59.81430 5.55594 9.67997 -0.87718 8.24156 0.79556 3.86377 35.41000 -12.93370 82.68700 15.89340 33.73980 92.47420 -5.55712 9.68432 0.87760 8.46942 -36.59290 2.36661 14.43750 20.74290 -27.14650 -30.34820 4.75655 3.31052 0.09656 -0.59559 -0.36476 -20.93860 11.57730 0.83943 8.50544 43.90840 -7.85629 0.75364 -28.03960 -0.17125 -21.27710 -26.41480 -4.94037 
-58.51850 84.54920 23.12770 5.58180 4.71061 70.93540 2.31179 7.87246 8.38358 1.90012 16.28950 16.09870 -18.39190 -6.08378 35.69970 -0.00000 -0.00000 0.00000 -44.62920 -44.09400 -16.96350 -9.86881 12.13210 -63.08700 5.55594 9.67997 -0.87718 9.12297 0.86303 4.05156 39.52620 -13.81640 83.71780 16.57070 34.81250 92.59890 -5.55712 9.68432 0.87760 8.30140 -38.70850 1.42374 16.82650 29.30630 -27.32500 -30.28230 5.59261 3.52166 0.73915 -8.48041 -3.29248 -18.87850 10.50790 0.65063 8.45428 44.91270 -10.54950 0.11269 -29.10370 -0.29688 -20.87640 -25.97700 -4.28569 
-60.32280 84.93530 23.93800 5.69441 4.56020 71.80140 1.47527 8.24907 7.91105 1.38553 16.72180 15.18810 -17.17980 -6.66724 35.34970 -0.00000 -0.00000 0.00000 -47.95750 -44.32160 -24.22890 -10.59670 13.50880 -66.03690 5.55594 9.67997 -0.87718 10.28260 0.96072 4.33069 43.28150 -14.55840 83.44480 17.56860 36.07780 92.86480 -5.55712 9.68432 0.87760 8.07263 -40.43070 0.50015 19.40350 38.13930 -28.88270 -31.21370 5.73406 3.67499 1.00414 -14.56110 -5.95015 -17.16140 9.55589 0.75714 8.95039 45.76200 -13.22750 0.04463 -29.28760 -0.31147 -21.00960 -26.06190 -3.53105 
-61.58980 85.36470 24.61250 5.53949 4.16873 72.94120 1.18654 8.30700 7.33646 1.02174 16.75170 14.06440 -15.84520 -6.59814 35.04350 -0.00000 -0.00000 0.00000 -51.53860 -44.06130 -31.38230 -11.32710 15.03190 -68.70600 5.55594 9.67997 -0.87718 11.91880 1.09826 4.65461 46.00810 -15.40690 82.00730 18.71160 37.29640 93.22760 -5.55712 9.68432 0.87760 7.97504 -41.56220 -0.01728 22.40040 46.35770 -32.20760 -32.63840 4.48242 3.49902 1.07095 -17.58810 -7.86340 -15.62070 8.96775 0.64839 9.88394 45.99780 -15.40310 0.18050 -28.76220 -0.28172 -21.51550 -26.53050 -2.77025 
-62.42020 85.85340 25.11510 5.02009 3.48777 74.33530 1.56459 8.02502 6.62084 0.81635 16.33470 12.77880 -14.41660 -6.05345 34.86950 -0.00000 -0.00000 0.00000 -55.20250 -43.31880 -38.11660 -12.06850 16.72800 -71.11310 5.55594 9.67997 -0.87718 14.05160 1.27735 4.98731 47.30610 -16.36910 79.65320 19.70710 38.20350 93.70030 -5.55712 9.68432 0.87760 8.18181 -41.87770 0.10714 25.64590 52.90990 -36.50390 -33.66210 2.41433 3.00949 1.12449 -18.75690 -9.49785 -14.10480 8.69625 0.06089 10.85520 45.48270 -16.64040 0.32941 -27.77080 -0.24902 -22.17570 -27.16970 -2.02867 
-63.03970 86.46380 25.47320 4.14085 2.68831 75.75500 2.22627 7.54581 5.85412 0.64285 15.59180 11.47560 -12.98120 -5.35544 34.89460 -0.00000 -0.00000 0.00000 -58.80180 -42.19300 -44.23600 -12.80200 18.55610 -73.27970 5.55594 9.67997 -0.87718 16.47120 1.48704 5.31233 47.20400 -17.27260 76.69070 20.30390 38.64750 94.35910 -5.55712 9.68432 0.87760 8.73364 -41.28680 0.96017 28.11230 57.00290 -39.83160 -33.53640 0.43344 2.41746 1.16106 -20.04930 -11.67220 -12.62260 8.43994 -0.93387 11.46530 44.36120 -16.68100 0.57715 -26.58000 -0.20164 -22.76280 -27.74330 -1.19636 
-63.65050 87.30080 25.75300 2.94369 1.99276 76.88720 2.63325 7.04245 5.16687 0.38872 14.69930 10.30930 -11.64770 -4.79829 35.15090 -0.00000 -0.00000 0.00000 -62.23850 -40.91490 -49.63750 -13.51400 20.47460 -75.24030 5.55594 9.67997 -0.87718 18.80070 1.70470 5.63049 46.18100 -17.88860 73.55060 20.42050 38.65910 95.21240 -5.55712 9.68432 0.87760 9.57353 -39.88900 2.55291 28.41660 58.31550 -40.24760 -31.86100 -1.11079 1.86055 1.01162 -22.79030 -14.31760 -11.26710 7.92299 -2.07714 11.46360 42.76110 -15.38570 1.19760 -25.40830 -0.09988 -23.03420 -27.99030 -0.03723 
-64.31350 88.44130 25.99180 1.50229 1.50380 77.45580 2.51286 6.60273 4.64643 0.03814 13.78480 9.36914 -10.50090 -4.50732 35.65710 -0.00000 -0.00000 0.00000 -65.44870 -39.80520 -54.25000 -14.20640 22.45520 -77.03720 5.55594 9.67997 -0.87718 20.66530 1.90188 5.93860 44.97130 -18.08220 70.77030 20.20060 38.43800 96.08900 -5.55712 9.68432 0.87760 10.62670 -37.86860 4.72771 26.06750 56.99210 -37.25160 -28.51860 -2.55656 1.29860 0.61037 -26.42050 -15.75330 -10.12180 7.13928 -3.07026 10.79640 40.61520 -12.69500 2.44646 -24.35870 0.08441 -22.77810 -27.66050 1.63148 
